# xmcd CD database file
#
# Track frame offsets:
#	150
#	22597
#	43079
#	58065
#	78877
#	94813
#	104188
#	130138
#	155339
#	176207
#	191801
#	211160
#
# Disc length: 3110 seconds
#
# Revision: 0
# Processed by: cddbd v1.5.1PL2 Copyright (c) Steve Scherf et al.
# Submitted via: CDex 1.51
#
DISCID=a00c240c
DTITLE=Silly Walker - タイガー＆メロン　〜とらの回〜
DYEAR=2006
DGENRE=Other
TTITLE0=wonderland*material(s) - ちょっとお気に入り＋
TTITLE1=nixx (Remix:Spelunker) - phuture(SLK-recycle-mix)
TTITLE2=Silly Walker FM Radio #1
TTITLE3=wonderland*material(s) - ハローページ
TTITLE4=Spelunker - Express(Local mix)
TTITLE5=Silly Walker FM Radio #2
TTITLE6=Spelunker - アラビアンライト
TTITLE7=Spelunker - zenmaiscope
TTITLE8=kneesox twin - Q*T*days
TTITLE9=Silly Walker FM Radio #3
TTITLE10=wonderland*material(s) - モニター
TTITLE11=wonderland*material(s) - 隠す自分
EXTD=YEAR: 2006
EXTT0=
EXTT1=
EXTT2=
EXTT3=
EXTT4=
EXTT5=
EXTT6=
EXTT7=
EXTT8=
EXTT9=
EXTT10=
EXTT11=
PLAYORDER=
